<mxfile host="app.diagrams.net" modified="2023-06-20T10:08:41.753Z" agent="Mozilla/5.0 (Macintosh; Intel Mac OS X 10_15_7) AppleWebKit/537.36 (KHTML, like Gecko) Chrome/114.0.0.0 Safari/537.36" etag="rU21Qo8XJiTVbRTkTy-n" version="21.2.9" type="github">
  <diagram name="Page-1" id="ZzzG8xkiLJckP28Nvf6R">
    <mxGraphModel dx="982" dy="785" grid="1" gridSize="10" guides="1" tooltips="1" connect="1" arrows="1" fold="1" page="1" pageScale="1" pageWidth="827" pageHeight="1169" math="0" shadow="0">
      <root>
        <mxCell id="0" />
        <mxCell id="1" parent="0" />
        <mxCell id="3NY3mQ4XBLZMTgtuS7Ig-1" value="&lt;b&gt;&lt;font style=&quot;font-size: 18px;&quot;&gt;SOCIAL MEDIA ADS ➡️ $100k/month&lt;/font&gt;&lt;/b&gt;" style="text;html=1;strokeColor=none;fillColor=none;align=center;verticalAlign=middle;whiteSpace=wrap;rounded=0;" vertex="1" parent="1">
          <mxGeometry x="50" y="90" width="350" height="30" as="geometry" />
        </mxCell>
        <mxCell id="3NY3mQ4XBLZMTgtuS7Ig-4" value="" style="shape=image;html=1;verticalAlign=top;verticalLabelPosition=bottom;labelBackgroundColor=#ffffff;imageAspect=0;aspect=fixed;image=https://cdn2.iconfinder.com/data/icons/social-media-2285/512/1_Facebook_colored_svg_copy-128.png" vertex="1" parent="1">
          <mxGeometry x="60" y="160" width="50" height="50" as="geometry" />
        </mxCell>
      </root>
    </mxGraphModel>
  </diagram>
</mxfile>
